<?xml version="1.0" encoding="UTF-8"?><svg id="b" xmlns="http://www.w3.org/2000/svg" xmlns:xlink="http://www.w3.org/1999/xlink" viewBox="0 0 366.66 203.59"><defs><style>.e{fill:url(#d);}</style><linearGradient id="d" x1="0" y1="101.8" x2="366.66" y2="101.8" gradientUnits="userSpaceOnUse"><stop offset="0" stop-color="#b38f47"/><stop offset=".12" stop-color="#cdaa63"/><stop offset=".27" stop-color="#e7c680"/><stop offset=".41" stop-color="#f8d692"/><stop offset=".5" stop-color="#fedd99"/><stop offset=".63" stop-color="#ec8"/><stop offset=".89" stop-color="#c6a25c"/><stop offset="1" stop-color="#b38f47"/></linearGradient></defs><g id="c"><path class="e" d="M177.64,187.75c-4.53,0-7.36,3.12-7.36,7.25v.32c0,4.13,2.82,7.25,7.36,7.25s7.38-3.12,7.38-7.25v-.32c0-4.13-2.82-7.25-7.38-7.25ZM180.6,195.32c0,2.38-1.03,3.83-2.96,3.83s-2.94-1.45-2.94-3.83v-.32c0-2.38.99-3.83,2.94-3.83s2.96,1.45,2.96,3.83v.32ZM186.01,188.01h11.67v3.39h-3.71v10.92h-4.23v-10.92h-3.73v-3.39ZM365.45,110.91l-.1-.04c-3.2-.48-5.83,3.09-8.87,5.07-5.57,4.37-10.92,8.49-17.24,11.65-2.21,1.15-4.57,2.62-7.08,2.73-1.78.04-1.82-2.58-1.33-4.44,2.3-8.68,6.58-16.96,8.12-25.79,1.46-5.5,1.11-10.27-3.44-13.69-2.55-2.28-3.99-3.09-6.72-3.24-3.31,1.44-8.02,6.35-11.56,8.94-4.39,3.22-37.76,32.25-45.31,37.75-3.01,2.9-6.13,5.14-10.16,6.37-12.15,5.21-9.74-13.69-8.29-20.51.36-1.68,1.4-5.84,2.13-6.9,1.02,0,4.7,2.46,5.96,1.79,3.38-1.78,8.36-8.3,11.37-12.52,4.35-6.08,18.19-25.73,20.33-28.78,2.97-4.28,18.48-30.95,22.21-40,3.11-7.54,3.9-10.83,4.47-18.35-1.15-5.95-11.57-12.96-14.65-10.44-2.23,1.14-11.74,10.54-20.55,21.29-4.38,5.34-7.86,11.12-11.64,16.9-7.12,10.89-10.92,18.27-17.02,29.78-4.23,7.98-7.15,16.46-9.66,22.44-1.29,3.06-3.22,9.4-3.77,11.07-.54,1.62-25.15,25.26-32.55,29.32-1.46.8-8.54,4.88-10.2,4.92-5.62-1.07.34-16.18,1.99-19.5,2.1-4.26,5.4-7.9,6.31-12.42,1.03-3.98-.26-7.7-5.01-9.87-5.36-2.14-8.43,8.32-11.86,10.81-.6-3.92-1.51-11.17-7.12-14.04-3.86-1.97-5.35-2.85-9.43-1.76-5.96,1.6-14.64,4.35-20.58,8.12-15.01,9.51-33.82,28.06-33.82,43.61-.25,5.48,1.17,11.03,4.08,14.37,2.44,2.81,7.68,3.47,11.05,3.76,4.9.41,9.86-3.27,13.89-6.01,10.59-7.22,20.19-15.66,29.74-24.12,1.54-1.36,2.98-3.15,3.66-2.76-.24,3.09-.98,9.35-.65,12.27.54,7.31,3.64,12.71,8.81,13.54,4.13.66,9.89-2.28,14.44-4.42,9.66-4.55,33.13-29.87,34.03-31.24.59-.81-.63,3.79-.59,10.94.03,4.92,2.55,11.43,5.38,15.68,4.21,5.61,12.49,5.86,18.7,4.49,4.7-1.2,8.72-4.14,12.6-6.98,8.82-6.45,19.36-18.94,27.67-26.09,4.73-4.07,13.77-12.88,17.45-13.55,1.23-.23,1.75,1.85,1.08,4.3-.28,1.88-1.16,3.53-1.87,5.3-2.8,6.8-5.68,13.77-6.04,21.17-.03,7.27,1.73,18.23,11.36,16.97,10.53-2.42,19.57-9.31,27.61-16.31,5.73-4.52,11.69-9.32,13.57-16.74.47-1.51.65-4.36-.88-4.87ZM261.17,88.91c4.4-12.05,10.92-23.25,18.27-33.72,3.64-5.18,10.1-15.11,14.13-19.99,3.79-4.59,6.15-8.21,10.39-12.36,1.14-1.11,2.71-3.4,3.98-2.26.75,1.11.6,2.36.32,3.79-2.64,8.28-7.98,17.81-14.94,28.52-3.49,5.37-10.52,14.67-14.47,19.71-4.56,5.8-8.58,10.42-13.48,15.86-2.48,2.75-7.16,7.57-4.19.43ZM185.07,113.09l-4.6,4.71c-3.47,3.53-14.96,13.27-23.3,19.28-3.99,2.91-7.81,6.03-12.27,8.54-2.13,1.2-6.25,3.63-7.8,3.12-2.78-1.39-2.48-7.7-.97-10.52,1.97-3.97,4.65-7.81,7.3-11.13,7.71-9.37,19.22-16.98,31.27-19.07,2.98-.36,5.82-.13,9.19.33,1.41.28,3.3.96,4.47.56-.77,1.44-1.75,2.61-3.3,4.18ZM203.63,198.93h7.15v3.39h-11.3v-14.31h11.1v3.39h-6.95v2.04h6.05v3.24h-6.05v2.26ZM342.35,48.13c-.31-2.21,1.12-4.25,2.87-5.49,1.75-1.23,4.1-2.51,7.58-.8,3.48,1.7,3.68,10.02,3.16,12.11-.28,1.12-2.08,3.37-3.85,4.33-1.77.96-4.58.04-4.58.04-4.18-1.9-4.85-7.86-5.18-10.19ZM163.2,188.01h4.23v14.31h-4.23v-5.6h-4.68v5.6h-4.23v-14.31h4.23v5.28h4.68v-5.28ZM127.1,182.8l-.15-.1c-6.39-4.2-38.59-22.66-48.13-27.76-7.25-4.33-26.59-15.12-29.61-16.82-1.02-.6-2.12-1.19-3.07-1.93-.42-.31-2.61-1.78-5.49-3.69,1.19-2.6,2.42-5.34,2.42-5.34.21-1.24,1.21-2.88,1.95-4.36,2.36-5,3.59-8.98,6.18-13.61.96-1.78,2.62-5.38,5.51-11.54l12.37-4.8c4.56-1.91,7.09-2.42,11.74-4.13,8.17-3.88,17.04-7.47,25.8-9.98,6.04-1.77,13.07-4.71,19.1-6.9,5.52-1.54,11.26-2.87,16.54-5.17,6.02-2.13,11.62-3.13,16.24-7.88,6.45-6.39,4.92-18.1-6.33-14.27-7.01,1.72-33.56,13.86-40.3,16.71-2.73,1.23-30.36,14.48-36.05,16.82-.51.2-5.76,2.44-12.47,5.35,4.68-10.11,9.6-20.69,9.88-21.43,1.68-3.6,2.22-6.31,3.67-9.69,1.16-2.66,3.22-4.73,4.25-7.5,2.1-5.01,1.54-12.16-1.79-16.33-2.63-4.19-6.01-6.96-11.26-5.72-3.7.74-6.93,4.67-6.47,8.17.19,1.97.14,4.82.08,6.79-.17,5.55,0,8.41-1.36,12.82-2.57,8.91-6.48,16.2-10.37,25.3-.41.96-4,8.13-7.88,15.85-4.54,2.06-8.04,3.72-9.24,4.45-6.85,3.84-14.48,6.33-21.35,10.68-4.13,2.3-9.59,6.15-5.38,11.11,3.82,4.23,12.04,9.27,15.68,12.72l.73.5c-.81,1.66-1.36,2.82-1.47,3.1-2.45,6.01-5.61,11.37-8.26,17.09-3.68,6.92-6.31,13.8-9.18,21.23-4.07,8.74-5.15,16.01-.94,25.01,4.45,7.95,15.19,8.91,14.57-2.51-.57-6.39,2.01-12.89,4.08-18.99,2.22-6.54,4.39-13.16,7.9-19.16,1.61-2.55,5.09-11.02,7.39-16.14l2.59,1.77c1.94.9,44.51,32.84,50.32,36.51,6.16,4.62,12.13,9.61,18.4,14.53,2.12,1.42,9.08,6.01,10.86,7.02,3.17,1.6,8.81-.21,11.75-1.88,2.8-1.6,2.94-4.17,3.23-6.49.47-3.86-2.59-7.15-6.66-9.44ZM31.7,112.23c-.44,1.07-2.85,6.01-5.27,10.94-1.71-1.1-2.95-1.89-3.35-2.1-2.88-1.73-6.65-4.1-6.66-6.3,0-1.35,2.28-2.5,4.47-3.81,3.96-2.3,9.97-4.44,14.49-6.17l.11-.04c-2.22,4.39-3.79,7.49-3.79,7.49ZM272.31,187.75c-4.53,0-7.36,3.12-7.36,7.25v.32c0,4.13,2.82,7.25,7.36,7.25s7.37-3.12,7.37-7.25v-.32c0-4.13-2.82-7.25-7.37-7.25ZM275.27,195.32c0,2.38-1.03,3.83-2.96,3.83s-2.94-1.45-2.94-3.83v-.32c0-2.38.99-3.83,2.94-3.83s2.96,1.45,2.96,3.83v.32ZM288.91,187.75c-4.53,0-7.36,3.12-7.36,7.25v.32c0,4.13,2.82,7.25,7.36,7.25s7.38-3.12,7.38-7.25v-.32c0-4.13-2.82-7.25-7.38-7.25ZM291.87,195.32c0,2.38-1.03,3.83-2.96,3.83s-2.94-1.45-2.94-3.83v-.32c0-2.38.99-3.83,2.94-3.83s2.96,1.45,2.96,3.83v.32ZM217.61,198.93h5.1v3.39h-9.33v-14.31h4.23v10.92ZM330.81,187.75c-4.53,0-7.36,3.12-7.36,7.25v.32c0,4.13,2.82,7.25,7.36,7.25s7.38-3.12,7.38-7.25v-.32c0-4.13-2.82-7.25-7.38-7.25ZM333.77,195.32c0,2.38-1.03,3.83-2.96,3.83s-2.94-1.45-2.94-3.83v-.32c0-2.38.99-3.83,2.94-3.83s2.96,1.45,2.96,3.83v.32ZM310.71,188.01h11.67v3.39h-3.71v10.92h-4.23v-10.92h-3.73v-3.39ZM298.54,188.01h10.66v3.39h-6.47v2.44h5.58v3.39h-5.58v5.1h-4.19v-14.31ZM347.17,188.01h-6.73v14.31h4.19v-4.35h2.54c3.2,0,5.56-1.67,5.56-4.92v-.12c0-3.2-2.42-4.92-5.56-4.92ZM348.38,193.05c0,1.09-.71,1.53-1.73,1.53h-2.01v-3.18h2.01c1.03,0,1.73.44,1.73,1.53v.12ZM234,187.18h3.87v16.08h-3.87v-16.08ZM263.24,193.05v-.12c0-3.2-2.42-4.92-5.56-4.92h-6.93v14.31h4.19v-4.35h1.63l2.46,4.35h4.51l-2.96-4.92c1.63-.75,2.66-2.2,2.66-4.35ZM258.89,193.05c0,1.09-.71,1.53-1.73,1.53h-2.22v-3.18h2.22c1.03,0,1.73.44,1.73,1.53v.12Z"/></g></svg>